<svg
    xmlns="http://www.w3.org/2000/svg"
    width="1535" height="1600"
    viewBox="0 0 1535 1600"
>

<!-- Background. -->
<rect width="100%" height="100%" fill="#3f3f3f" />
<!-- Grid lines. -->
<g stroke="#FFFFFF" stroke-opacity=".25" stroke-width="2" stroke-linecap="square">
    <!-- Horizontal grid lines. -->
    <g>
        <line x1="300" y1="1300"  x2="1235" y2="1300" ></line>
        <line x1="300" y1="1250"  x2="1235" y2="1250" ></line>
        <line x1="300" y1="1200"  x2="1235" y2="1200" ></line>
        <line x1="300" y1="1150"  x2="1235" y2="1150" ></line>
        <line x1="300" y1="1100"  x2="1235" y2="1100" ></line>
        <line x1="300" y1="1050"  x2="1235" y2="1050" ></line>
        <line x1="300" y1="1000"  x2="1235" y2="1000" ></line>
        <line x1="300" y1="950"  x2="1235" y2="950" ></line>
        <line x1="300" y1="900"  x2="1235" y2="900" ></line>
        <line x1="300" y1="850"  x2="1235" y2="850" ></line>
        <line x1="300" y1="800"  x2="1235" y2="800" ></line>
        <line x1="300" y1="750"  x2="1235" y2="750" ></line>
        <line x1="300" y1="700"  x2="1235" y2="700" ></line>
        <line x1="300" y1="650"  x2="1235" y2="650" ></line>
        <line x1="300" y1="600"  x2="1235" y2="600" ></line>
        <line x1="300" y1="550"  x2="1235" y2="550" ></line>
        <line x1="300" y1="500"  x2="1235" y2="500" ></line>
        <line x1="300" y1="450"  x2="1235" y2="450" ></line>
        <line x1="300" y1="400"  x2="1235" y2="400" ></line>
        <line x1="300" y1="350"  x2="1235" y2="350" ></line>
        <line x1="300" y1="300"  x2="1235" y2="300" ></line>
    </g>
    <!-- Vertical grid lines. -->
    <g>
        <line x1="300" y1="1300"  x2="300" y2="300" ></line>
        <line x1="355" y1="1300"  x2="355" y2="300" ></line>
        <line x1="410" y1="1300"  x2="410" y2="300" ></line>
        <line x1="465" y1="1300"  x2="465" y2="300" ></line>
        <line x1="520" y1="1300"  x2="520" y2="300" ></line>
        <line x1="575" y1="1300"  x2="575" y2="300" ></line>
        <line x1="630" y1="1300"  x2="630" y2="300" ></line>
        <line x1="685" y1="1300"  x2="685" y2="300" ></line>
        <line x1="740" y1="1300"  x2="740" y2="300" ></line>
        <line x1="795" y1="1300"  x2="795" y2="300" ></line>
        <line x1="850" y1="1300"  x2="850" y2="300" ></line>
        <line x1="905" y1="1300"  x2="905" y2="300" ></line>
        <line x1="960" y1="1300"  x2="960" y2="300" ></line>
        <line x1="1015" y1="1300"  x2="1015" y2="300" ></line>
        <line x1="1070" y1="1300"  x2="1070" y2="300" ></line>
        <line x1="1125" y1="1300"  x2="1125" y2="300" ></line>
        <line x1="1180" y1="1300"  x2="1180" y2="300" ></line>
        <line x1="1235" y1="1300"  x2="1235" y2="300" ></line>
        <line x1="432" y1="1300"  x2="432" y2="300" stroke="#00FFFF" ></line>
        <line x1="399" y1="1300"  x2="399" y2="300" stroke="#FF7F00" ></line>
    </g>
</g>
<!-- Labels. -->
<g fill="#FFFFFF" font-size="15px" font-family="monospace">
        <text x="300" y="1352" font-size="18px" font-weight="bold" text-anchor="start" fill="#00FFFF" >Tetrs Combo (4-wide 3-res.) - Bot run statistics.</text>
        <text x="300" y="1375" text-anchor="start">samples = 1000, randomizer = 'recency', lookahead = 0; combo_median = 9, combo_average = 12, combo_max = 82, frequency_max = 95.</text>
    <!-- y-axis labels. -->
    <g text-anchor="end">
        <text x="293" y="1307">0</text>
        <text x="293" y="1257">5</text>
        <text x="293" y="1207">10</text>
        <text x="293" y="1157">15</text>
        <text x="293" y="1107">20</text>
        <text x="293" y="1057">25</text>
        <text x="293" y="1007">30</text>
        <text x="293" y="957">35</text>
        <text x="293" y="907">40</text>
        <text x="293" y="857">45</text>
        <text x="293" y="807">50</text>
        <text x="293" y="757">55</text>
        <text x="293" y="707">60</text>
        <text x="293" y="657">65</text>
        <text x="293" y="607">70</text>
        <text x="293" y="557">75</text>
        <text x="293" y="507">80</text>
        <text x="293" y="457">85</text>
        <text x="293" y="407">90</text>
        <text x="293" y="357">95</text>
        <text x="293" y="307">100</text>
        <text x="300" y="285" text-anchor="middle">Frequency</text>
        <text x="432" y="285" fill="#00FFFF" text-anchor="middle">Average</text>
        <text x="399" y="285" fill="#FF7F00" text-anchor="middle">Median</text>
    </g>
    <!-- x-axis labels. -->
    <g text-anchor="middle">
        <text transform="translate(293,1322) rotate(45)">0</text>
        <text transform="translate(348,1322) rotate(45)">5</text>
        <text transform="translate(403,1322) rotate(45)">10</text>
        <text transform="translate(458,1322) rotate(45)">15</text>
        <text transform="translate(513,1322) rotate(45)">20</text>
        <text transform="translate(568,1322) rotate(45)">25</text>
        <text transform="translate(623,1322) rotate(45)">30</text>
        <text transform="translate(678,1322) rotate(45)">35</text>
        <text transform="translate(733,1322) rotate(45)">40</text>
        <text transform="translate(788,1322) rotate(45)">45</text>
        <text transform="translate(843,1322) rotate(45)">50</text>
        <text transform="translate(898,1322) rotate(45)">55</text>
        <text transform="translate(953,1322) rotate(45)">60</text>
        <text transform="translate(1008,1322) rotate(45)">65</text>
        <text transform="translate(1063,1322) rotate(45)">70</text>
        <text transform="translate(1118,1322) rotate(45)">75</text>
        <text transform="translate(1173,1322) rotate(45)">80</text>
        <text transform="translate(1228,1322) rotate(45)">85</text>
        <text x="1250" y="1307" text-anchor="start">Combo Length</text>
    </g>
</g>
<!-- Surface graph path. -->
<path
    stroke="#FFFFFF"
    stroke-width="1"
    fill="#FFFFFF"
    fill-opacity=".5"
    d="
        M 300,1300
        L311,640
        L322,350
        L333,530
        L344,660
        L355,610
        L366,620
        L377,860
        L388,1000
        L399,950
        L410,1000
        L421,930
        L432,1010
        L443,1020
        L454,1100
        L465,1030
        L476,1080
        L487,1150
        L498,1100
        L509,1170
        L520,1090
        L531,1160
        L542,1190
        L553,1120
        L564,1150
        L575,1180
        L586,1270
        L597,1210
        L608,1260
        L619,1220
        L630,1220
        L641,1270
        L652,1210
        L663,1240
        L674,1260
        L685,1280
        L696,1260
        L707,1270
        L718,1250
        L729,1280
        L740,1240
        L751,1290
        L762,1270
        L773,1280
        L784,1240
        L795,1250
        L806,1280
        L817,1290
        L828,1290
        L839,1280
        L850,1250
        L861,1290
        L894,1280
        L905,1290
        L927,1280
        L938,1290
        L971,1280
        L982,1290
        L1070,1290
        L1092,1290
        L1125,1290
        L1169,1290
        L1180,1290
        L1202,1290
        L1202,1300
        M 300,1300
    "
/><!-- Graph data points. -->
<g fill="#00FFFF">
    <circle cx="311" cy="640"  r="3" />
    <circle cx="322" cy="350"  r="3" />
    <circle cx="333" cy="530"  r="3" />
    <circle cx="344" cy="660"  r="3" />
    <circle cx="355" cy="610"  r="3" />
    <circle cx="366" cy="620"  r="3" />
    <circle cx="377" cy="860"  r="3" />
    <circle cx="388" cy="1000"  r="3" />
    <circle cx="399" cy="950"  r="3" />
    <circle cx="410" cy="1000"  r="3" />
    <circle cx="421" cy="930"  r="3" />
    <circle cx="432" cy="1010"  r="3" />
    <circle cx="443" cy="1020"  r="3" />
    <circle cx="454" cy="1100"  r="3" />
    <circle cx="465" cy="1030"  r="3" />
    <circle cx="476" cy="1080"  r="3" />
    <circle cx="487" cy="1150"  r="3" />
    <circle cx="498" cy="1100"  r="3" />
    <circle cx="509" cy="1170"  r="3" />
    <circle cx="520" cy="1090"  r="3" />
    <circle cx="531" cy="1160"  r="3" />
    <circle cx="542" cy="1190"  r="3" />
    <circle cx="553" cy="1120"  r="3" />
    <circle cx="564" cy="1150"  r="3" />
    <circle cx="575" cy="1180"  r="3" />
    <circle cx="586" cy="1270"  r="3" />
    <circle cx="597" cy="1210"  r="3" />
    <circle cx="608" cy="1260"  r="3" />
    <circle cx="619" cy="1220"  r="3" />
    <circle cx="630" cy="1220"  r="3" />
    <circle cx="641" cy="1270"  r="3" />
    <circle cx="652" cy="1210"  r="3" />
    <circle cx="663" cy="1240"  r="3" />
    <circle cx="674" cy="1260"  r="3" />
    <circle cx="685" cy="1280"  r="3" />
    <circle cx="696" cy="1260"  r="3" />
    <circle cx="707" cy="1270"  r="3" />
    <circle cx="718" cy="1250"  r="3" />
    <circle cx="729" cy="1280"  r="3" />
    <circle cx="740" cy="1240"  r="3" />
    <circle cx="751" cy="1290"  r="3" />
    <circle cx="762" cy="1270"  r="3" />
    <circle cx="773" cy="1280"  r="3" />
    <circle cx="784" cy="1240"  r="3" />
    <circle cx="795" cy="1250"  r="3" />
    <circle cx="806" cy="1280"  r="3" />
    <circle cx="817" cy="1290"  r="3" />
    <circle cx="828" cy="1290"  r="3" />
    <circle cx="839" cy="1280"  r="3" />
    <circle cx="850" cy="1250"  r="3" />
    <circle cx="861" cy="1290"  r="3" />
    <circle cx="894" cy="1280"  r="3" />
    <circle cx="905" cy="1290"  r="3" />
    <circle cx="927" cy="1280"  r="3" />
    <circle cx="938" cy="1290"  r="3" />
    <circle cx="971" cy="1280"  r="3" />
    <circle cx="982" cy="1290"  r="3" />
    <circle cx="1070" cy="1290"  r="3" />
    <circle cx="1092" cy="1290"  r="3" />
    <circle cx="1125" cy="1290"  r="3" />
    <circle cx="1169" cy="1290"  r="3" />
    <circle cx="1180" cy="1290"  r="3" />
    <circle cx="1202" cy="1290"  r="3" />
</g>
</svg>
