<svg width="936" height="992" viewBox="0 0 702 744" xmlns="http://www.w3.org/2000/svg" xmlns:xlink="http://www.w3.org/1999/xlink">
<g id="graph0" class="graph" transform="translate(5.190580245810419,643.7739443799095) scale(1.2976450614526047)">
<polygon fill="white" stroke="none" points="-4,4 -4,-472 536.98,-472 536.98,4 -4,4"/>
<!-- Title -->
<g id="node1" class="node">
<title>Title</title>
<ellipse fill="none" stroke="black" cx="436.8" cy="-378" rx="29.27" ry="18"/>
<text text-anchor="middle" x="436.8" y="-373.8" font-family="Times,serif" font-size="14.00">Title</text>
</g>
<!-- NewGame -->
<g id="node2" class="node">
<title>NewGame</title>
<ellipse fill="none" stroke="#007fff" cx="331.8" cy="-306" rx="52.33" ry="18"/>
<text text-anchor="middle" x="331.8" y="-301.8" font-family="Times,serif" font-size="14.00">NewGame</text>
</g>
<!-- Title&#45;&gt;NewGame -->
<g id="edge2" class="edge">
<title>Title-&gt;NewGame</title>
<path fill="none" stroke="#007fff" d="M417.54,-364.16C402.66,-354.24 381.71,-340.27 364.25,-328.63"/>
<polygon fill="#007fff" stroke="#007fff" points="366.49,-325.92 356.23,-323.29 362.61,-331.74 366.49,-325.92"/>
</g>
<!-- Settings -->
<g id="node7" class="node">
<title>Settings</title>
<ellipse fill="none" stroke="#007fff" cx="155.8" cy="-90" rx="42.16" ry="18"/>
<text text-anchor="middle" x="155.8" y="-85.8" font-family="Times,serif" font-size="14.00">Settings</text>
</g>
<!-- Title&#45;&gt;Settings -->
<g id="edge3" class="edge">
<title>Title-&gt;Settings</title>
<path fill="none" stroke="#007fff" d="M408.17,-373.36C331.37,-361.85 121.52,-318.36 45.8,-180 38.12,-165.96 37.29,-157.55 45.8,-144 59.32,-122.48 84.3,-109.49 107.04,-101.77"/>
<polygon fill="#007fff" stroke="#007fff" points="108.01,-105.13 116.52,-98.83 105.93,-98.45 108.01,-105.13"/>
</g>
<!-- Scoreboard -->
<g id="node10" class="node">
<title>Scoreboard</title>
<ellipse fill="none" stroke="#007fff" cx="373.8" cy="-90" rx="55.01" ry="18"/>
<text text-anchor="middle" x="373.8" y="-85.8" font-family="Times,serif" font-size="14.00">Scoreboard</text>
</g>
<!-- Title&#45;&gt;Scoreboard -->
<g id="edge4" class="edge">
<title>Title-&gt;Scoreboard</title>
<path fill="none" stroke="#007fff" d="M443.38,-360.24C458,-320.15 488.99,-216.64 450.8,-144 443.33,-129.78 430.12,-118.64 416.74,-110.31"/>
<polygon fill="#007fff" stroke="#007fff" points="418.76,-107.44 408.35,-105.5 415.28,-113.51 418.76,-107.44"/>
</g>
<!-- About -->
<g id="node11" class="node">
<title>About</title>
<ellipse fill="none" stroke="#007fff" cx="497.8" cy="-90" rx="35.18" ry="18"/>
<text text-anchor="middle" x="497.8" y="-85.8" font-family="Times,serif" font-size="14.00">About</text>
</g>
<!-- Title&#45;&gt;About -->
<g id="edge5" class="edge">
<title>Title-&gt;About</title>
<path fill="none" stroke="#007fff" d="M455.53,-363.8C467.41,-354.25 481.81,-340.22 488.8,-324 518.32,-255.56 510.04,-165.04 503.05,-119.61"/>
<polygon fill="#007fff" stroke="#007fff" points="506.52,-119.09 501.44,-109.79 499.61,-120.23 506.52,-119.09"/>
</g>
<!-- Quit -->
<g id="node12" class="node">
<title>Quit</title>
<ellipse fill="none" stroke="black" cx="270.8" cy="-90" rx="28.2" ry="18"/>
<text text-anchor="middle" x="270.8" y="-85.8" font-family="Times,serif" font-size="14.00">Quit</text>
</g>
<!-- Title&#45;&gt;Quit -->
<g id="edge1" class="edge">
<title>Title-&gt;Quit</title>
<path fill="none" stroke="black" d="M437.76,-359.7C440.08,-311.55 443.98,-177.37 417.8,-144 386.57,-104.19 357.04,-126.13 309.8,-108 307.87,-107.26 305.89,-106.48 303.9,-105.67"/>
<polygon fill="black" stroke="black" points="305.32,-102.47 294.74,-101.82 302.6,-108.92 305.32,-102.47"/>
</g>
<!-- Game -->
<g id="node3" class="node">
<title>Game</title>
<ellipse fill="none" stroke="black" cx="269.8" cy="-234" rx="34.09" ry="18"/>
<text text-anchor="middle" x="269.8" y="-229.8" font-family="Times,serif" font-size="14.00">Game</text>
</g>
<!-- NewGame&#45;&gt;Game -->
<g id="edge6" class="edge">
<title>NewGame-&gt;Game</title>
<path fill="none" stroke="black" d="M317.11,-288.41C309.32,-279.62 299.62,-268.66 291.03,-258.96"/>
<polygon fill="black" stroke="black" points="293.79,-256.81 284.54,-251.64 288.55,-261.45 293.79,-256.81"/>
</g>
<!-- GameOver -->
<g id="node4" class="node">
<title>GameOver</title>
<ellipse fill="none" stroke="black" cx="269.8" cy="-162" rx="53.4" ry="18"/>
<text text-anchor="middle" x="269.8" y="-157.8" font-family="Times,serif" font-size="14.00">GameOver</text>
</g>
<!-- Game&#45;&gt;GameOver -->
<g id="edge7" class="edge">
<title>Game-&gt;GameOver</title>
<path fill="none" stroke="black" d="M269.8,-215.7C269.8,-208.41 269.8,-199.73 269.8,-191.54"/>
<polygon fill="black" stroke="black" points="273.3,-191.62 269.8,-181.62 266.3,-191.62 273.3,-191.62"/>
</g>
<!-- GameComplete -->
<g id="node5" class="node">
<title>GameComplete</title>
<ellipse fill="none" stroke="black" cx="126.8" cy="-162" rx="71.64" ry="18"/>
<text text-anchor="middle" x="126.8" y="-157.8" font-family="Times,serif" font-size="14.00">GameComplete</text>
</g>
<!-- Game&#45;&gt;GameComplete -->
<g id="edge8" class="edge">
<title>Game-&gt;GameComplete</title>
<path fill="none" stroke="black" d="M245.54,-221.13C224.56,-210.85 193.74,-195.77 168.76,-183.54"/>
<polygon fill="black" stroke="black" points="170.34,-180.42 159.82,-179.16 167.26,-186.7 170.34,-180.42"/>
</g>
<!-- Pause -->
<g id="node6" class="node">
<title>Pause</title>
<ellipse fill="none" stroke="#007fff" cx="374.8" cy="-162" rx="33.57" ry="18"/>
<text text-anchor="middle" x="374.8" y="-157.8" font-family="Times,serif" font-size="14.00">Pause</text>
</g>
<!-- Game&#45;&gt;Pause -->
<g id="edge9" class="edge">
<title>Game-&gt;Pause</title>
<path fill="none" stroke="#007fff" d="M290.3,-219.34C305.91,-208.93 327.62,-194.45 345.13,-182.78"/>
<polygon fill="#007fff" stroke="#007fff" points="346.72,-185.93 353.1,-177.47 342.84,-180.1 346.72,-185.93"/>
</g>
<!-- GameOver&#45;&gt;NewGame -->
<g id="edge11" class="edge">
<title>GameOver-&gt;NewGame</title>
<path fill="none" stroke="#007fff" d="M286.4,-179.24C295.51,-189.07 306.26,-202.32 312.8,-216 321.93,-235.09 326.7,-258.55 329.19,-276.6"/>
<polygon fill="#007fff" stroke="#007fff" points="325.69,-276.82 330.35,-286.33 332.64,-275.99 325.69,-276.82"/>
</g>
<!-- GameOver&#45;&gt;Settings -->
<g id="edge12" class="edge">
<title>GameOver-&gt;Settings</title>
<path fill="none" stroke="#007fff" d="M244.78,-145.64C228.3,-135.52 206.55,-122.16 188.68,-111.19"/>
<polygon fill="#007fff" stroke="#007fff" points="190.85,-108.41 180.5,-106.16 187.19,-114.38 190.85,-108.41"/>
</g>
<!-- GameOver&#45;&gt;Scoreboard -->
<g id="edge13" class="edge">
<title>GameOver-&gt;Scoreboard</title>
<path fill="none" stroke="#007fff" d="M292.88,-145.46C307.06,-135.93 325.43,-123.56 341.09,-113.02"/>
<polygon fill="#007fff" stroke="#007fff" points="342.83,-116.07 349.17,-107.58 338.92,-110.26 342.83,-116.07"/>
</g>
<!-- GameOver&#45;&gt;Quit -->
<g id="edge10" class="edge">
<title>GameOver-&gt;Quit</title>
<path fill="none" stroke="black" d="M270.05,-143.7C270.15,-136.41 270.28,-127.73 270.39,-119.54"/>
<polygon fill="black" stroke="black" points="273.89,-119.67 270.54,-109.62 266.89,-119.57 273.89,-119.67"/>
</g>
<!-- GameComplete&#45;&gt;NewGame -->
<g id="edge15" class="edge">
<title>GameComplete-&gt;NewGame</title>
<path fill="none" stroke="#007fff" d="M143.02,-179.88C161.93,-198.95 194.71,-230.17 226.8,-252 246.41,-265.34 269.83,-277.48 289.58,-286.77"/>
<polygon fill="#007fff" stroke="#007fff" points="287.9,-289.85 298.45,-290.86 290.83,-283.49 287.9,-289.85"/>
</g>
<!-- GameComplete&#45;&gt;Settings -->
<g id="edge16" class="edge">
<title>GameComplete-&gt;Settings</title>
<path fill="none" stroke="#007fff" d="M133.97,-143.7C137.1,-136.15 140.84,-127.12 144.33,-118.68"/>
<polygon fill="#007fff" stroke="#007fff" points="147.54,-120.08 148.14,-109.5 141.08,-117.4 147.54,-120.08"/>
</g>
<!-- GameComplete&#45;&gt;Scoreboard -->
<g id="edge17" class="edge">
<title>GameComplete-&gt;Scoreboard</title>
<path fill="none" stroke="#007fff" d="M172.97,-147.92C215.36,-135.9 278.08,-118.13 322.13,-105.64"/>
<polygon fill="#007fff" stroke="#007fff" points="323.06,-109.02 331.72,-102.92 321.15,-102.28 323.06,-109.02"/>
</g>
<!-- GameComplete&#45;&gt;Quit -->
<g id="edge14" class="edge">
<title>GameComplete-&gt;Quit</title>
<path fill="none" stroke="black" d="M158.76,-145.46C182.47,-133.94 214.68,-118.28 238.48,-106.71"/>
<polygon fill="black" stroke="black" points="239.94,-109.9 247.4,-102.38 236.87,-103.6 239.94,-109.9"/>
</g>
<!-- Pause&#45;&gt;NewGame -->
<g id="edge19" class="edge">
<title>Pause-&gt;NewGame</title>
<path fill="none" stroke="#007fff" d="M369.6,-180.19C362.32,-204.21 349.03,-248.11 340.31,-276.91"/>
<polygon fill="#007fff" stroke="#007fff" points="336.98,-275.84 337.43,-286.42 343.68,-277.87 336.98,-275.84"/>
</g>
<!-- Pause&#45;&gt;Settings -->
<g id="edge20" class="edge">
<title>Pause-&gt;Settings</title>
<path fill="none" stroke="#007fff" d="M348.55,-150.22C343.05,-148.07 337.26,-145.9 331.8,-144 288.01,-128.78 237.24,-113.77 201.52,-103.63"/>
<polygon fill="#007fff" stroke="#007fff" points="202.51,-100.27 191.93,-100.92 200.61,-107.01 202.51,-100.27"/>
</g>
<!-- Pause&#45;&gt;Scoreboard -->
<g id="edge21" class="edge">
<title>Pause-&gt;Scoreboard</title>
<path fill="none" stroke="#007fff" d="M374.55,-143.7C374.45,-136.41 374.33,-127.73 374.21,-119.54"/>
<polygon fill="#007fff" stroke="#007fff" points="377.71,-119.57 374.07,-109.62 370.71,-119.67 377.71,-119.57"/>
</g>
<!-- Pause&#45;&gt;About -->
<g id="edge22" class="edge">
<title>Pause-&gt;About</title>
<path fill="none" stroke="#007fff" d="M397.36,-148.16C416.32,-137.37 443.65,-121.82 465.02,-109.66"/>
<polygon fill="#007fff" stroke="#007fff" points="466.69,-112.73 473.65,-104.74 463.23,-106.65 466.69,-112.73"/>
</g>
<!-- Pause&#45;&gt;Quit -->
<g id="edge18" class="edge">
<title>Pause-&gt;Quit</title>
<path fill="none" stroke="black" d="M354.75,-147.5C338.91,-136.84 316.62,-121.84 298.99,-109.97"/>
<polygon fill="black" stroke="black" points="301.25,-107.27 291,-104.59 297.34,-113.08 301.25,-107.27"/>
</g>
<!-- ConfigureControls -->
<g id="node8" class="node">
<title>ChangeControls</title>
<ellipse fill="none" stroke="#007fff" cx="73.8" cy="-18" rx="73.8" ry="18"/>
<text text-anchor="middle" x="73.8" y="-13.8" font-family="Times,serif" font-size="14.00">ChangeControls</text>
</g>
<!-- Settings&#45;&gt;ConfigureControls -->
<g id="edge23" class="edge">
<title>Settings-&gt;ChangeControls</title>
<path fill="none" stroke="#007fff" d="M137.6,-73.46C127.15,-64.54 113.8,-53.14 102.01,-43.08"/>
<polygon fill="#007fff" stroke="#007fff" points="104.41,-40.53 94.53,-36.7 99.87,-45.85 104.41,-40.53"/>
</g>
<!-- ENTRY -->
<g id="node9" class="node">
<title>ConfigureGame</title>
<ellipse fill="none" stroke="rgb(0, 127, 255)" cx="238.8" cy="-18" rx="73.25" ry="18"/>
<text text-anchor="middle" x="238.8" y="-13.8" font-family="Times,serif" font-size="14.00">ConfigureGame</text>
</g>
<!-- ENTRY&#45;&gt;Title -->
<g id="edge24" class="edge">
<title>Settings-&gt;ConfigureGame</title>
<path fill="none" stroke="#007fff" d="M174.22,-73.46C184.8,-64.54 198.32,-53.14 210.25,-43.08"/>
<polygon fill="#007fff" stroke="#007fff" points="212.44,-45.81 217.83,-36.69 207.93,-40.46 212.44,-45.81"/>
</g>
<!-- ENTRY&#45;&gt;Title -->
<!-- ENTRY -->
<g id="edge25" class="edge">
<title>ENTRY-&gt;Title</title>
<path fill="none" stroke="black" d="M436.8,-431.7C436.8,-424.41 436.8,-415.73 436.8,-407.54"/>
<polygon fill="black" stroke="black" points="440.3,-407.62 436.8,-397.62 433.3,-407.62 440.3,-407.62"/>
</g>
</g>
</svg>