<svg width="936" height="992" viewBox="0 0 702 744" xmlns="http://www.w3.org/2000/svg" xmlns:xlink="http://www.w3.org/1999/xlink">
<g id="graph0" class="graph" transform="translate(3.4881120119659292,670.233577023087) scale(0.8720280029914823)">
<polygon fill="white" stroke="none" points="-4,4 -4,-688 801.02,-688 801.02,4 -4,4"/>
<!-- 0.0▛ ZIJOL -->
<g id="node1" class="node">
<title>0.0▖▞IJOLT</title>
<ellipse fill="none" stroke="black" cx="401.01" cy="-666" rx="63.34" ry="18"/>
<text text-anchor="middle" x="401.01" y="-661.8" font-family="Times,serif" font-size="14.00">0.0▖▞IJOLT</text>
</g>
<!-- 0.0▛ I(&#45;Z)IJOL -->
<g id="node2" class="node">
<title>0.0▖▞J(-I)JOLT</title>
<ellipse fill="none" stroke="black" cx="324.01" cy="-594" rx="76.74" ry="18"/>
<text text-anchor="middle" x="324.01" y="-589.8" font-family="Times,serif" font-size="14.00">0.0▖▞J(-I)JOLT</text>
</g>
<!-- 0.0▛ ZIJOL&#45;&gt;0.0▛ I(&#45;Z)IJOL -->
<g id="edge1" class="edge">
<title>0.0▖▞IJOLT-&gt;0.0▖▞J(-I)JOLT</title>
<path fill="none" stroke="black" d="M382.76,-648.41C373.24,-639.76 361.42,-629 350.87,-619.42"/>
<polygon fill="black" stroke="black" points="353.27,-616.87 343.52,-612.73 348.56,-622.05 353.27,-616.87"/>
</g>
<!-- 1.1▖▞IJOL -->
<g id="node3" class="node">
<title>1.1▖▞JOLT</title>
<ellipse fill="none" stroke="black" cx="484.01" cy="-594" rx="60.12" ry="18"/>
<text text-anchor="middle" x="484.01" y="-589.8" font-family="Times,serif" font-size="14.00">1.1▖▞JOLT</text>
</g>
<!-- 0.0▛ ZIJOL&#45;&gt;1.1▖▞IJOL -->
<g id="edge2" class="edge">
<title>0.0▖▞IJOLT-&gt;1.1▖▞JOLT</title>
<path fill="none" stroke="black" d="M420.68,-648.41C431.23,-639.52 444.4,-628.41 455.99,-618.63"/>
<polygon fill="black" stroke="black" points="457.94,-621.57 463.33,-612.45 453.43,-616.22 457.94,-621.57"/>
</g>
<!-- 2.1▞▘IJOL -->
<g id="node4" class="node">
<title>0.1▌▖J(I)OLT</title>
<ellipse fill="none" stroke="black" cx="319.01" cy="-522" rx="69.77" ry="18"/>
<text text-anchor="middle" x="319.01" y="-517.8" font-family="Times,serif" font-size="14.00">0.1▌▖J(I)OLT</text>
</g>
<!-- 0.0▛ ZIJOL&#45;&gt;2.1▞▘IJOL -->
<g id="edge3" class="edge">
<title>0.0▖▞J(-I)JOLT-&gt;0.1▌▖J(I)OLT</title>
<path fill="none" stroke="black" d="M322.78,-575.7C322.26,-568.41 321.64,-559.73 321.05,-551.54"/>
<polygon fill="black" stroke="black" points="324.55,-551.34 320.34,-541.61 317.56,-551.84 324.55,-551.34"/>
</g>
<!-- 0.1▛ I(Z)JOL -->
<g id="node5" class="node">
<title>1.1▖▞O(-J)OLT</title>
<ellipse fill="none" stroke="black" cx="484.01" cy="-522" rx="76.74" ry="18"/>
<text text-anchor="middle" x="484.01" y="-517.8" font-family="Times,serif" font-size="14.00">1.1▖▞O(-J)OLT</text>
</g>
<!-- 0.0▛ I(&#45;Z)IJOL&#45;&gt;0.1▛ I(Z)JOL -->
<g id="edge4" class="edge">
<title>1.1▖▞JOLT-&gt;1.1▖▞O(-J)OLT</title>
<path fill="none" stroke="black" d="M484.01,-575.7C484.01,-568.41 484.01,-559.73 484.01,-551.54"/>
<polygon fill="black" stroke="black" points="487.51,-551.62 484.01,-541.62 480.51,-551.62 487.51,-551.62"/>
</g>
<!-- 1.1▖▞J(&#45;I)JOL -->
<g id="node6" class="node">
<title>1.2▌▖OLT</title>
<ellipse fill="none" stroke="black" cx="635.01" cy="-522" rx="56.36" ry="18"/>
<text text-anchor="middle" x="635.01" y="-517.8" font-family="Times,serif" font-size="14.00">1.2▌▖OLT</text>
</g>
<!-- 1.1▖▞IJOL&#45;&gt;1.1▖▞J(&#45;I)JOL -->
<g id="edge5" class="edge">
<title>1.1▖▞JOLT-&gt;1.2▌▖OLT</title>
<path fill="none" stroke="black" d="M515.67,-578.33C538.37,-567.8 569.16,-553.53 593.78,-542.11"/>
<polygon fill="black" stroke="black" points="594.94,-545.43 602.54,-538.05 592,-539.08 594.94,-545.43"/>
</g>
<!-- 1.2▖▞JOL -->
<g id="node7" class="node">
<title>0.1▌▖I(-J)OLT</title>
<ellipse fill="none" stroke="black" cx="194.01" cy="-450" rx="72.99" ry="18"/>
<text text-anchor="middle" x="194.01" y="-445.8" font-family="Times,serif" font-size="14.00">0.1▌▖I(-J)OLT</text>
</g>
<!-- 1.1▖▞IJOL&#45;&gt;1.2▖▞JOL -->
<g id="edge6" class="edge">
<title>0.1▌▖J(I)OLT-&gt;0.1▌▖I(-J)OLT</title>
<path fill="none" stroke="black" d="M290.65,-505.12C273.39,-495.45 251.12,-482.98 232.31,-472.44"/>
<polygon fill="black" stroke="black" points="234.02,-469.39 223.59,-467.56 230.6,-475.5 234.02,-469.39"/>
</g>
<!-- 2.1▞▘J(&#45;I)JOL -->
<g id="node8" class="node">
<title>0.2▖▄O(I)LT</title>
<ellipse fill="none" stroke="black" cx="351.01" cy="-450" rx="66.01" ry="18"/>
<text text-anchor="middle" x="351.01" y="-445.8" font-family="Times,serif" font-size="14.00">0.2▖▄O(I)LT</text>
</g>
<!-- 2.1▞▘IJOL&#45;&gt;2.1▞▘J(&#45;I)JOL -->
<g id="edge7" class="edge">
<title>0.1▌▖J(I)OLT-&gt;0.2▖▄O(I)LT</title>
<path fill="none" stroke="black" d="M326.92,-503.7C330.41,-496.07 334.59,-486.92 338.49,-478.4"/>
<polygon fill="black" stroke="black" points="341.59,-480.03 342.56,-469.48 335.22,-477.12 341.59,-480.03"/>
</g>
<!-- 2.2▞▘JOL -->
<g id="node9" class="node">
<title>1.2▌▖L(-O)LT</title>
<ellipse fill="none" stroke="black" cx="635.01" cy="-450" rx="71.91" ry="18"/>
<text text-anchor="middle" x="635.01" y="-445.8" font-family="Times,serif" font-size="14.00">1.2▌▖L(-O)LT</text>
</g>
<!-- 2.1▞▘IJOL&#45;&gt;2.2▞▘JOL -->
<g id="edge8" class="edge">
<title>1.2▌▖OLT-&gt;1.2▌▖L(-O)LT</title>
<path fill="none" stroke="black" d="M635.01,-503.7C635.01,-496.41 635.01,-487.73 635.01,-479.54"/>
<polygon fill="black" stroke="black" points="638.51,-479.62 635.01,-469.62 631.51,-479.62 638.51,-479.62"/>
</g>
<!-- 0.1▛ Z(&#45;I)JOL -->
<g id="node10" class="node">
<title>0.2▌▖O(J)LT</title>
<ellipse fill="none" stroke="black" cx="195.01" cy="-378" rx="66.55" ry="18"/>
<text text-anchor="middle" x="195.01" y="-373.8" font-family="Times,serif" font-size="14.00">0.2▌▖O(J)LT</text>
</g>
<!-- 0.1▛ I(Z)JOL&#45;&gt;0.1▛ Z(&#45;I)JOL -->
<g id="edge9" class="edge">
<title>0.1▌▖I(-J)OLT-&gt;0.2▌▖O(J)LT</title>
<path fill="none" stroke="black" d="M194.26,-431.7C194.36,-424.41 194.49,-415.73 194.6,-407.54"/>
<polygon fill="black" stroke="black" points="198.1,-407.67 194.75,-397.62 191.1,-407.57 198.1,-407.67"/>
</g>
<!-- 0.2▛ J(Z)OL -->
<g id="node11" class="node">
<title>0.2▖▄I(-O)LT</title>
<ellipse fill="none" stroke="black" cx="350.01" cy="-378" rx="69.23" ry="18"/>
<text text-anchor="middle" x="350.01" y="-373.8" font-family="Times,serif" font-size="14.00">0.2▖▄I(-O)LT</text>
</g>
<!-- 0.1▛ I(Z)JOL&#45;&gt;0.2▛ J(Z)OL -->
<g id="edge10" class="edge">
<title>0.2▖▄O(I)LT-&gt;0.2▖▄I(-O)LT</title>
<path fill="none" stroke="black" d="M350.77,-431.7C350.66,-424.41 350.54,-415.73 350.42,-407.54"/>
<polygon fill="black" stroke="black" points="353.92,-407.57 350.28,-397.62 346.92,-407.67 353.92,-407.57"/>
</g>
<!-- 1.2▌▖J(I)OL -->
<g id="node12" class="node">
<title>1.3▄▖L(O)T</title>
<ellipse fill="none" stroke="black" cx="587.01" cy="-378" rx="62.8" ry="18"/>
<text text-anchor="middle" x="587.01" y="-373.8" font-family="Times,serif" font-size="14.00">1.3▄▖L(O)T</text>
</g>
<!-- 1.1▖▞J(&#45;I)JOL&#45;&gt;1.2▌▖J(I)OL -->
<g id="edge11" class="edge">
<title>1.2▌▖L(-O)LT-&gt;1.3▄▖L(O)T</title>
<path fill="none" stroke="black" d="M623.39,-432.05C617.85,-423.97 611.1,-414.12 604.92,-405.11"/>
<polygon fill="black" stroke="black" points="607.92,-403.31 599.38,-397.04 602.15,-407.26 607.92,-403.31"/>
</g>
<!-- 1.2▖▞O(&#45;J)OL -->
<g id="node13" class="node">
<title>1.3▖▞L(O)T</title>
<ellipse fill="none" stroke="black" cx="731.01" cy="-378" rx="62.8" ry="18"/>
<text text-anchor="middle" x="731.01" y="-373.8" font-family="Times,serif" font-size="14.00">1.3▖▞L(O)T</text>
</g>
<!-- 1.2▖▞JOL&#45;&gt;1.2▖▞O(&#45;J)OL -->
<g id="edge12" class="edge">
<title>1.2▌▖L(-O)LT-&gt;1.3▖▞L(O)T</title>
<path fill="none" stroke="black" d="M657.28,-432.76C669.88,-423.58 685.84,-411.94 699.69,-401.84"/>
<polygon fill="black" stroke="black" points="701.63,-404.76 707.64,-396.04 697.5,-399.1 701.63,-404.76"/>
</g>
<!-- 1.3▌▖OL -->
<g id="node14" class="node">
<title>0.2▌▖J(-O)LT</title>
<ellipse fill="none" stroke="black" cx="199.01" cy="-306" rx="69.77" ry="18"/>
<text text-anchor="middle" x="199.01" y="-301.8" font-family="Times,serif" font-size="14.00">0.2▌▖J(-O)LT</text>
</g>
<!-- 1.2▖▞JOL&#45;&gt;1.3▌▖OL -->
<g id="edge13" class="edge">
<title>0.2▌▖O(J)LT-&gt;0.2▌▖J(-O)LT</title>
<path fill="none" stroke="black" d="M196,-359.7C196.42,-352.41 196.91,-343.73 197.38,-335.54"/>
<polygon fill="black" stroke="black" points="200.87,-335.8 197.95,-325.62 193.88,-335.4 200.87,-335.8"/>
</g>
<!-- 2.2▞▘O(&#45;J)OL -->
<g id="node15" class="node">
<title>0.3▖▄L(O)T</title>
<ellipse fill="none" stroke="black" cx="207.01" cy="-234" rx="62.8" ry="18"/>
<text text-anchor="middle" x="207.01" y="-229.8" font-family="Times,serif" font-size="14.00">0.3▖▄L(O)T</text>
</g>
<!-- 2.2▞▘JOL&#45;&gt;2.2▞▘O(&#45;J)OL -->
<g id="edge14" class="edge">
<title>0.2▖▄I(-O)LT-&gt;0.3▖▄L(O)T</title>
<path fill="none" stroke="black" d="M338.15,-359.87C324.73,-341.13 301.65,-310.73 278.01,-288 266.62,-277.04 252.92,-266.33 240.62,-257.45"/>
<polygon fill="black" stroke="black" points="242.96,-254.82 232.77,-251.91 238.92,-260.54 242.96,-254.82"/>
</g>
<!-- 0.2▖▞J(I)OL -->
<g id="node16" class="node">
<title>1.3▄▖O(-L)T</title>
<ellipse fill="none" stroke="black" cx="455.01" cy="-306" rx="66.01" ry="18"/>
<text text-anchor="middle" x="455.01" y="-301.8" font-family="Times,serif" font-size="14.00">1.3▄▖O(-L)T</text>
</g>
<!-- 0.1▛ Z(&#45;I)JOL&#45;&gt;0.2▖▞J(I)OL -->
<g id="edge15" class="edge">
<title>1.3▄▖L(O)T-&gt;1.3▄▖O(-L)T</title>
<path fill="none" stroke="black" d="M558.04,-361.64C539.35,-351.72 514.79,-338.7 494.33,-327.85"/>
<polygon fill="black" stroke="black" points="496.18,-324.87 485.71,-323.28 492.9,-331.05 496.18,-324.87"/>
</g>
<!-- 0.2▞▘J(I)OL -->
<g id="node17" class="node">
<title>1.4 ▜T(O)</title>
<ellipse fill="none" stroke="black" cx="591.01" cy="-306" rx="52.07" ry="18"/>
<text text-anchor="middle" x="591.01" y="-301.8" font-family="Times,serif" font-size="14.00">1.4 ▜T(O)</text>
</g>
<!-- 0.1▛ Z(&#45;I)JOL&#45;&gt;0.2▞▘J(I)OL -->
<g id="edge16" class="edge">
<title>1.3▄▖L(O)T-&gt;1.4 ▜T(O)</title>
<path fill="none" stroke="black" d="M588,-359.7C588.42,-352.41 588.91,-343.73 589.38,-335.54"/>
<polygon fill="black" stroke="black" points="592.87,-335.8 589.95,-325.62 585.88,-335.4 592.87,-335.8"/>
</g>
<!-- 0.2▛ Z(&#45;J)OL -->
<g id="node18" class="node">
<title>1.3▖▞O(-L)T</title>
<ellipse fill="none" stroke="black" cx="731.01" cy="-306" rx="66.01" ry="18"/>
<text text-anchor="middle" x="731.01" y="-301.8" font-family="Times,serif" font-size="14.00">1.3▖▞O(-L)T</text>
</g>
<!-- 0.2▛ J(Z)OL&#45;&gt;0.2▛ Z(&#45;J)OL -->
<g id="edge17" class="edge">
<title>1.3▖▞L(O)T-&gt;1.3▖▞O(-L)T</title>
<path fill="none" stroke="black" d="M731.01,-359.7C731.01,-352.41 731.01,-343.73 731.01,-335.54"/>
<polygon fill="black" stroke="black" points="734.51,-335.62 731.01,-325.62 727.51,-335.62 734.51,-335.62"/>
</g>
<!-- 1.2▌▖I(&#45;J)OL -->
<g id="edge18" class="edge">
<title>0.2▌▖J(-O)LT-&gt;0.3▖▄L(O)T</title>
<path fill="none" stroke="black" d="M200.99,-287.7C201.82,-280.41 202.81,-271.73 203.75,-263.54"/>
<polygon fill="black" stroke="black" points="207.23,-263.94 204.89,-253.61 200.27,-263.15 207.23,-263.94"/>
</g>
<!-- 1.2▌▖J(I)OL&#45;&gt;1.2▌▖I(&#45;J)OL -->
<g id="node19" class="node">
<title>0.3▖▄O(-L)T</title>
<ellipse fill="none" stroke="black" cx="66.01" cy="-162" rx="66.01" ry="18"/>
<text text-anchor="middle" x="66.01" y="-157.8" font-family="Times,serif" font-size="14.00">0.3▖▄O(-L)T</text>
</g>
<!-- 1.3▖▄O(I)L -->
<g id="edge19" class="edge">
<title>0.3▖▄L(O)T-&gt;0.3▖▄O(-L)T</title>
<path fill="none" stroke="black" d="M176.42,-217.81C156,-207.67 128.93,-194.23 106.7,-183.2"/>
<polygon fill="black" stroke="black" points="108.42,-180.14 97.9,-178.83 105.3,-186.41 108.42,-180.14"/>
</g>
<!-- 1.2▌▖J(I)OL&#45;&gt;1.3▖▄O(I)L -->
<g id="node20" class="node">
<title>0.4▗▄T(O)</title>
<ellipse fill="none" stroke="black" cx="207.01" cy="-162" rx="56.9" ry="18"/>
<text text-anchor="middle" x="207.01" y="-157.8" font-family="Times,serif" font-size="14.00">0.4▗▄T(O)</text>
</g>
<!-- 1.3▌▖L(&#45;O)L -->
<g id="edge20" class="edge">
<title>0.3▖▄L(O)T-&gt;0.4▗▄T(O)</title>
<path fill="none" stroke="black" d="M207.01,-215.7C207.01,-208.41 207.01,-199.73 207.01,-191.54"/>
<polygon fill="black" stroke="black" points="210.51,-191.62 207.01,-181.62 203.51,-191.62 210.51,-191.62"/>
</g>
<!-- 1.3▌▖OL&#45;&gt;1.3▌▖L(&#45;O)L -->
<g id="node21" class="node">
<title>0.4▜ T(O)</title>
<ellipse fill="none" stroke="black" cx="334.01" cy="-162" rx="52.07" ry="18"/>
<text text-anchor="middle" x="334.01" y="-157.8" font-family="Times,serif" font-size="14.00">0.4▜ T(O)</text>
</g>
<!-- 0.2▖▞I(&#45;J)OL -->
<g id="edge21" class="edge">
<title>0.3▖▄L(O)T-&gt;0.4▜ T(O)</title>
<path fill="none" stroke="black" d="M235.2,-217.46C253.49,-207.38 277.52,-194.14 297.31,-183.23"/>
<polygon fill="black" stroke="black" points="298.82,-186.4 305.88,-178.5 295.44,-180.27 298.82,-186.4"/>
</g>
<!-- 0.2▖▞J(I)OL&#45;&gt;0.2▖▞I(&#45;J)OL -->
<g id="node22" class="node">
<title>1.4 ▜O(-T)</title>
<ellipse fill="none" stroke="black" cx="467.01" cy="-234" rx="55.28" ry="18"/>
<text text-anchor="middle" x="467.01" y="-229.8" font-family="Times,serif" font-size="14.00">1.4 ▜O(-T)</text>
</g>
<!-- 0.3▌▖O(I)L -->
<g id="edge22" class="edge">
<title>1.4 ▜T(O)-&gt;1.4 ▜O(-T)</title>
<path fill="none" stroke="black" d="M564.72,-290.15C546.92,-280.11 523.16,-266.7 503.53,-255.62"/>
<polygon fill="black" stroke="black" points="505.45,-252.68 495.02,-250.81 502,-258.77 505.45,-252.68"/>
</g>
<!-- 0.2▖▞J(I)OL&#45;&gt;0.3▌▖O(I)L -->
<g id="node23" class="node">
<title>1.5▌▗(O)</title>
<ellipse fill="none" stroke="black" cx="591.01" cy="-234" rx="51" ry="18"/>
<text text-anchor="middle" x="591.01" y="-229.8" font-family="Times,serif" font-size="14.00">1.5▌▗(O)</text>
</g>
<!-- 0.2▞▘I(&#45;J)OL -->
<g id="edge23" class="edge">
<title>1.4 ▜T(O)-&gt;1.5▌▗(O)</title>
<path fill="none" stroke="black" d="M591.01,-287.7C591.01,-280.41 591.01,-271.73 591.01,-263.54"/>
<polygon fill="black" stroke="black" points="594.51,-263.62 591.01,-253.62 587.51,-263.62 594.51,-263.62"/>
</g>
<!-- 0.2▞▘J(I)OL&#45;&gt;0.2▞▘I(&#45;J)OL -->
<g id="node24" class="node">
<title>1.5▗▄(O)</title>
<ellipse fill="none" stroke="black" cx="711.01" cy="-234" rx="51" ry="18"/>
<text text-anchor="middle" x="711.01" y="-229.8" font-family="Times,serif" font-size="14.00">1.5▗▄(O)</text>
</g>
<!-- 0.3▖▞O(J)L -->
<g id="edge24" class="edge">
<title>1.4 ▜T(O)-&gt;1.5▗▄(O)</title>
<path fill="none" stroke="black" d="M616.76,-289.98C633.92,-279.97 656.7,-266.68 675.57,-255.67"/>
<polygon fill="black" stroke="black" points="677.13,-258.82 684,-250.75 673.6,-252.77 677.13,-258.82"/>
</g>
<!-- 0.2▛ Z(&#45;J)OL&#45;&gt;0.3▖▞O(J)L -->
<g id="node25" class="node">
<title>0.4▗▄O(-T)</title>
<ellipse fill="none" stroke="black" cx="85.01" cy="-90" rx="60.11" ry="18"/>
<text text-anchor="middle" x="85.01" y="-85.8" font-family="Times,serif" font-size="14.00">0.4▗▄O(-T)</text>
</g>
<!-- 0.3▞▘O(J)L -->
<g id="edge25" class="edge">
<title>0.4▗▄T(O)-&gt;0.4▗▄O(-T)</title>
<path fill="none" stroke="black" d="M180.24,-145.64C163,-135.75 140.36,-122.76 121.48,-111.93"/>
<polygon fill="black" stroke="black" points="123.45,-109.02 113.04,-107.08 119.97,-115.09 123.45,-109.02"/>
</g>
<!-- 0.2▛ Z(&#45;J)OL&#45;&gt;0.3▞▘O(J)L -->
<g id="node26" class="node">
<title>0.5▙ (O)</title>
<ellipse fill="none" stroke="black" cx="209.01" cy="-90" rx="46.17" ry="18"/>
<text text-anchor="middle" x="209.01" y="-85.8" font-family="Times,serif" font-size="14.00">0.5▙ (O)</text>
</g>
<!-- 1.3▌▖O(J)L -->
<g id="edge26" class="edge">
<title>0.4▗▄T(O)-&gt;0.5▙ (O)</title>
<path fill="none" stroke="black" d="M207.51,-143.7C207.71,-136.41 207.96,-127.73 208.2,-119.54"/>
<polygon fill="black" stroke="black" points="211.69,-119.71 208.48,-109.62 204.7,-119.51 211.69,-119.71"/>
</g>
<!-- 1.2▌▖I(&#45;J)OL&#45;&gt;1.3▌▖O(J)L -->
<g id="node27" class="node">
<title>0.4▜ O(-T)</title>
<ellipse fill="none" stroke="black" cx="332.01" cy="-90" rx="55.28" ry="18"/>
<text text-anchor="middle" x="332.01" y="-85.8" font-family="Times,serif" font-size="14.00">0.4▜ O(-T)</text>
</g>
<!-- 1.3▖▄I(&#45;O)L -->
<g id="edge27" class="edge">
<title>0.4▜ T(O)-&gt;0.4▜ O(-T)</title>
<path fill="none" stroke="black" d="M333.52,-143.7C333.31,-136.41 333.06,-127.73 332.83,-119.54"/>
<polygon fill="black" stroke="black" points="336.33,-119.51 332.54,-109.62 329.33,-119.71 336.33,-119.51"/>
</g>
<!-- 1.3▖▄O(I)L&#45;&gt;1.3▖▄I(&#45;O)L -->
<g id="node28" class="node">
<title>0.5▗▐(O)</title>
<ellipse fill="none" stroke="black" cx="456.01" cy="-90" rx="51" ry="18"/>
<text text-anchor="middle" x="456.01" y="-85.8" font-family="Times,serif" font-size="14.00">0.5▗▐(O)</text>
</g>
<!-- 1.4▄▖L(O) -->
<g id="edge28" class="edge">
<title>0.4▜ T(O)-&gt;0.5▗▐(O)</title>
<path fill="none" stroke="black" d="M360.18,-145.98C377.75,-135.9 401.11,-122.5 420.37,-111.45"/>
<polygon fill="black" stroke="black" points="422.06,-114.52 428.99,-106.5 418.57,-108.45 422.06,-114.52"/>
</g>
<!-- 1.3▌▖L(&#45;O)L&#45;&gt;1.4▄▖L(O) -->
<g id="node29" class="node">
<title>1.5▄▗(T)</title>
<ellipse fill="none" stroke="black" cx="467.01" cy="-162" rx="49.92" ry="18"/>
<text text-anchor="middle" x="467.01" y="-157.8" font-family="Times,serif" font-size="14.00">1.5▄▗(T)</text>
</g>
<!-- 1.4▖▞L(O) -->
<g id="edge29" class="edge">
<title>1.4 ▜O(-T)-&gt;1.5▄▗(T)</title>
<path fill="none" stroke="black" d="M467.01,-215.7C467.01,-208.41 467.01,-199.73 467.01,-191.54"/>
<polygon fill="black" stroke="black" points="470.51,-191.62 467.01,-181.62 463.51,-191.62 470.51,-191.62"/>
</g>
<!-- 1.3▌▖L(&#45;O)L&#45;&gt;1.4▖▞L(O) -->
<g id="node30" class="node">
<title>0.5▗▄(T)</title>
<ellipse fill="none" stroke="black" cx="332.01" cy="-18" rx="49.92" ry="18"/>
<text text-anchor="middle" x="332.01" y="-13.8" font-family="Times,serif" font-size="14.00">0.5▗▄(T)</text>
</g>
<!-- 0.2▖▞I(&#45;J)OL&#45;&gt;0.3▖▞O(J)L -->
<g id="edge30" class="edge">
<title>0.4▜ O(-T)-&gt;0.5▗▄(T)</title>
<path fill="none" stroke="black" d="M332.01,-71.7C332.01,-64.41 332.01,-55.73 332.01,-47.54"/>
<polygon fill="black" stroke="black" points="335.51,-47.62 332.01,-37.62 328.51,-47.62 335.51,-47.62"/>
</g>
</g>
</svg>